<svg width="150" height="142" viewBox="0 0 150 142" fill="none" xmlns="http://www.w3.org/2000/svg">
<g clip-path="url(#clip0_6_2)">
<path d="M0.0100058 100.801C0.0206396 100.856 0.0374086 100.909 0.0599985 100.961C0.069997 100.991 0.0799956 101.031 0.0899941 101.061L11.4983 120.818L11.5283 120.848C11.5483 120.878 11.5683 120.908 11.5983 120.948C11.6369 120.99 11.6806 121.027 11.7283 121.058C11.7583 121.078 11.7783 121.108 11.8083 121.128C11.82 121.136 11.8342 121.139 11.8483 121.138C11.9615 121.201 12.0885 121.235 12.2182 121.238H57.3516L68.5199 140.575L68.5499 140.605C68.5699 140.635 68.5899 140.665 68.6199 140.705C68.6585 140.747 68.7022 140.784 68.7499 140.815C68.7799 140.835 68.7999 140.865 68.8299 140.885C68.8416 140.893 68.8558 140.896 68.8699 140.895C68.9831 140.958 69.1102 140.992 69.2398 140.995H137.68C137.813 140.992 137.943 140.958 138.06 140.895L138.15 140.835C138.235 140.778 138.309 140.707 138.37 140.625C138.38 140.605 138.41 140.595 138.42 140.575L149.828 120.818C149.838 120.798 149.838 120.788 149.848 120.768C149.866 120.736 149.879 120.703 149.888 120.668C149.898 120.628 149.908 120.598 149.918 120.558C149.926 120.522 149.93 120.485 149.928 120.448C149.928 120.428 149.938 120.418 149.938 120.398C149.938 120.378 149.928 120.368 149.928 120.348C149.928 120.308 149.918 120.278 149.918 120.238C149.918 120.198 149.898 120.168 149.888 120.128C149.876 120.094 149.863 120.06 149.848 120.028C149.838 120.008 149.838 119.998 149.828 119.978L127.261 80.8936L138.42 61.5564C138.43 61.5364 138.43 61.5264 138.44 61.5064C138.457 61.4749 138.471 61.4413 138.48 61.4064C138.49 61.3664 138.5 61.3364 138.51 61.2964C138.518 61.2604 138.521 61.2234 138.52 61.1864C138.52 61.1664 138.53 61.1564 138.53 61.1364C138.53 61.1165 138.52 61.1065 138.52 61.0865C138.52 61.0465 138.51 61.0165 138.51 60.9765C138.51 60.9365 138.49 60.9065 138.48 60.8665C138.468 60.8325 138.455 60.7991 138.44 60.7665C138.43 60.7465 138.43 60.7365 138.42 60.7165L104.215 1.43521C104.195 1.40521 104.165 1.38522 104.145 1.35522C104.111 1.30985 104.074 1.26645 104.035 1.22524C103.994 1.19191 103.95 1.16182 103.905 1.13525C103.861 1.10602 103.814 1.0825 103.765 1.06526C103.706 1.04613 103.646 1.03274 103.585 1.02527C103.555 1.02527 103.525 1.00527 103.485 1.00527H80.6682C80.6482 1.00527 80.6382 1.01527 80.6182 1.01527C80.5782 1.01527 80.5482 1.02527 80.5082 1.02527L80.3882 1.05526C80.3582 1.06526 80.3182 1.08526 80.2882 1.09526C80.2582 1.10526 80.2582 1.10526 80.2382 1.11526C80.2268 1.12761 80.2133 1.13777 80.1982 1.14525C80.1659 1.1654 80.1357 1.18886 80.1083 1.21524C80.0791 1.23932 80.0523 1.26611 80.0283 1.29523C80.0083 1.32522 79.9783 1.35522 79.9583 1.38522C79.9459 1.39661 79.9358 1.41016 79.9283 1.42521L57.3616 40.5195H35.0449C35.0249 40.5195 35.0149 40.5295 34.9949 40.5295C34.9549 40.5295 34.9249 40.5395 34.8849 40.5395C34.8449 40.5395 34.8049 40.5595 34.7749 40.5695C34.7409 40.5811 34.7075 40.5944 34.6749 40.6095C34.6549 40.6195 34.6449 40.6195 34.6249 40.6295C34.6049 40.6395 34.6049 40.6495 34.5849 40.6595C34.5526 40.6796 34.5224 40.7031 34.4949 40.7294C34.4658 40.7535 34.439 40.7803 34.415 40.8094C34.395 40.8394 34.365 40.8694 34.345 40.8994C34.3326 40.9108 34.3225 40.9244 34.315 40.9394L0.0999926 100.221C0.0854534 100.253 0.0753602 100.286 0.069997 100.321C0.0488081 100.373 0.0320831 100.426 0.0200043 100.481C0.00413327 100.532 -0.00263283 100.587 7.28396e-06 100.641C-0.00164817 100.694 0.00169921 100.748 0.0100058 100.801ZM102.995 2.70502L136.24 60.2866H115.383L82.128 2.70502H102.995ZM114.403 99.8008H93.5363L115.373 61.9663H136.24L114.403 99.8008ZM80.6682 3.5449L113.913 61.1264L92.0765 98.9609L81.648 80.8836L92.8164 61.5464C92.8264 61.5264 92.8264 61.5164 92.8364 61.4964C92.854 61.4649 92.8674 61.4313 92.8764 61.3964C92.8864 61.3564 92.8964 61.3264 92.9064 61.2864C92.9146 61.2504 92.918 61.2134 92.9164 61.1764C92.9164 61.1564 92.9264 61.1464 92.9264 61.1264C92.9264 61.1065 92.9164 61.0965 92.9164 61.0765C92.9164 61.0365 92.9064 61.0065 92.9064 60.9665C92.9064 60.9265 92.8864 60.8965 92.8764 60.8565C92.8648 60.8225 92.8514 60.7891 92.8364 60.7565C92.8264 60.7365 92.8264 60.7265 92.8164 60.7065L81.3981 40.9494C81.3781 40.9194 81.3481 40.8994 81.3281 40.8694C81.2939 40.824 81.2572 40.7806 81.2181 40.7394C81.1772 40.7061 81.1337 40.676 81.0881 40.6495C81.0435 40.6222 80.9967 40.5987 80.9481 40.5795C80.8936 40.5598 80.8361 40.5497 80.7782 40.5495C80.7482 40.5495 80.7082 40.5295 80.6782 40.5295H59.3213L80.6682 3.5449ZM57.8615 42.2192H80.1882L90.6267 60.2866H46.9431L36.5046 42.2192H57.8615ZM35.0449 43.0591L45.4733 61.1264L12.2282 118.708L1.79974 100.641L35.0449 43.0591ZM13.698 119.548L46.9431 61.9663H90.6267L80.1882 80.0437H57.8615C57.8415 80.0437 57.8315 80.0537 57.8115 80.0537C57.7715 80.0537 57.7415 80.0637 57.7015 80.0637L57.5816 80.0937C57.5516 80.1037 57.5116 80.1237 57.4816 80.1337C57.4516 80.1437 57.4516 80.1437 57.4316 80.1537C57.4202 80.166 57.4066 80.1762 57.3916 80.1837C57.3592 80.2038 57.3291 80.2273 57.3016 80.2536C57.2725 80.2777 57.2457 80.3045 57.2216 80.3336C57.2016 80.3636 57.1716 80.3936 57.1516 80.4236C57.1416 80.4336 57.1216 80.4436 57.1216 80.4636L45.7133 100.221C45.6988 100.253 45.6887 100.286 45.6833 100.321C45.6621 100.373 45.6454 100.426 45.6333 100.481C45.6247 100.534 45.6213 100.587 45.6233 100.641C45.6217 100.694 45.625 100.748 45.6333 100.801C45.6439 100.856 45.6607 100.909 45.6833 100.961C45.6933 100.991 45.7033 101.031 45.7133 101.061L56.3917 119.548H13.698ZM137.22 139.305H70.7296L81.1581 121.238H147.648L137.22 139.305ZM69.2698 138.465L47.433 100.641L57.8715 82.5633L79.7083 120.388L69.2698 138.465ZM147.648 119.548H81.1581L59.3213 81.7234H80.1882L91.3566 101.061L91.3866 101.091C91.4065 101.126 91.43 101.16 91.4566 101.191C91.4952 101.232 91.5389 101.269 91.5866 101.301C91.6166 101.321 91.6366 101.351 91.6666 101.371C91.6783 101.379 91.6925 101.382 91.7065 101.381C91.8197 101.444 91.9468 101.478 92.0765 101.481H114.893C115.026 101.478 115.156 101.444 115.273 101.381L115.363 101.321C115.448 101.264 115.522 101.193 115.583 101.111C115.593 101.091 115.623 101.081 115.633 101.061L126.311 82.5633L147.648 119.548Z" fill="white"/>
</g>
<defs>
<clipPath id="clip0_6_2">
<rect width="149.938" height="140" fill="white" transform="translate(0 1)"/>
</clipPath>
</defs>
</svg>
