<svg width="150" height="142" viewBox="0 0 150 142" fill="none" xmlns="http://www.w3.org/2000/svg">
<g clip-path="url(#clip0_6_9)">
<path d="M0.0199977 118.471C0.0321365 118.522 0.0488532 118.572 0.0699708 118.621C0.0754129 118.652 0.0855212 118.682 0.0999607 118.71L7.37782 131.328L7.40781 131.358C7.42795 131.39 7.45141 131.42 7.47779 131.448C7.51778 131.488 7.55776 131.518 7.59775 131.558C7.62774 131.578 7.63775 131.608 7.66774 131.618C7.67947 131.626 7.69361 131.629 7.7077 131.628C7.81625 131.683 7.93576 131.714 8.05761 131.718H131.891C132.013 131.714 132.132 131.683 132.241 131.628C132.271 131.608 132.291 131.588 132.321 131.568C132.402 131.517 132.47 131.449 132.521 131.368C132.531 131.348 132.551 131.338 132.571 131.318L139.859 118.701C139.869 118.691 139.869 118.671 139.879 118.661C139.898 118.63 139.912 118.596 139.919 118.561C139.929 118.531 139.939 118.491 139.949 118.461C139.957 118.428 139.96 118.394 139.959 118.361C139.959 118.341 139.969 118.331 139.969 118.311C139.969 118.291 139.959 118.281 139.959 118.261C139.959 118.241 139.949 118.191 139.949 118.161C139.949 118.131 139.929 118.091 139.919 118.061C139.908 118.026 139.895 117.993 139.879 117.961C139.869 117.951 139.869 117.931 139.859 117.921L77.947 10.672C77.9296 10.6466 77.9095 10.6232 77.887 10.602C77.8557 10.5574 77.8188 10.5171 77.7771 10.482C77.6987 10.4243 77.615 10.3741 77.5272 10.3321C77.4751 10.3164 77.4214 10.3063 77.3672 10.3021C77.3372 10.3021 77.3072 10.2821 77.2672 10.2821H62.7015C62.6815 10.2821 62.6715 10.2921 62.6515 10.2921C62.6315 10.2921 62.5816 10.3021 62.5516 10.3021L62.4416 10.3321C62.4073 10.3428 62.3739 10.3562 62.3416 10.3721C62.3299 10.38 62.3157 10.3836 62.3016 10.3821C62.2902 10.3944 62.2767 10.4046 62.2616 10.4121C62.2332 10.4296 62.2065 10.4497 62.1817 10.4721C62.1526 10.4961 62.1258 10.5229 62.1017 10.552C62.0817 10.582 62.0617 10.602 62.0417 10.632C62.0294 10.6434 62.0192 10.657 62.0117 10.672L0.0899539 117.931C0.0755143 117.959 0.065406 117.989 0.059964 118.021C0.0388313 118.069 0.0221141 118.119 0.00999091 118.171C0.00168463 118.22 -0.00167404 118.27 -1.59038e-05 118.321C0.00998115 118.371 0.0100007 118.421 0.0199977 118.471ZM76.8173 11.8518L137.829 117.531H31.2808L37.6589 106.493H117.345C117.469 106.492 117.59 106.457 117.695 106.393C117.705 106.383 117.725 106.393 117.735 106.383C117.761 106.365 117.784 106.345 117.805 106.323C117.848 106.289 117.888 106.252 117.925 106.213C117.955 106.175 117.982 106.135 118.005 106.093C118.035 106.055 118.056 106.01 118.065 105.963C118.086 105.912 118.096 105.858 118.095 105.803C118.095 105.773 118.115 105.743 118.115 105.703C118.115 105.683 118.105 105.673 118.105 105.653C118.1 105.602 118.09 105.552 118.075 105.503C118.063 105.452 118.046 105.402 118.025 105.353C118.015 105.343 118.015 105.323 118.005 105.313L64.0511 11.8518H76.8173ZM131.451 130.148H9.4272L62.7015 37.8666L69.0796 48.9044L29.2314 117.921C29.2234 117.932 29.2199 117.947 29.2214 117.961C29.2003 118.009 29.1835 118.059 29.1714 118.111C29.1566 118.16 29.1466 118.21 29.1414 118.261C29.1414 118.281 29.1314 118.291 29.1314 118.311C29.1314 118.331 29.1514 118.371 29.1514 118.411C29.1565 118.465 29.1666 118.518 29.1814 118.571C29.2014 118.621 29.2214 118.661 29.2414 118.701C29.2657 118.742 29.2924 118.782 29.3214 118.82C29.3614 118.86 29.4013 118.89 29.4413 118.93C29.4713 118.95 29.4813 118.98 29.5113 118.99C29.5213 119 29.5413 118.99 29.5513 119C29.6591 119.059 29.7786 119.093 29.9012 119.1H137.809L131.451 130.148ZM101.41 104.923H38.5586L69.9894 50.4841L101.41 104.923ZM62.7015 12.6416L115.976 104.923H103.23L63.3913 35.907C63.379 35.8956 63.3688 35.882 63.3613 35.867C63.3313 35.827 63.2913 35.787 63.2613 35.747C63.226 35.7084 63.1857 35.6748 63.1414 35.647C63.13 35.6347 63.1164 35.6245 63.1014 35.617C63.0731 35.6026 63.0427 35.5925 63.0114 35.5871C62.963 35.5659 62.9129 35.5492 62.8615 35.5371C62.7619 35.5237 62.6611 35.5237 62.5616 35.5371C62.5102 35.5492 62.46 35.5659 62.4116 35.5871C62.3803 35.5925 62.3499 35.6026 62.3216 35.617C62.3102 35.6294 62.2967 35.6396 62.2817 35.647C62.2417 35.677 62.2016 35.717 62.1617 35.747C62.1203 35.7796 62.0863 35.8205 62.0617 35.867C62.0494 35.8784 62.0392 35.8919 62.0317 35.907L8.07762 129.368L1.6995 118.331L62.7015 12.6416Z" fill="white"/>
</g>
<defs>
<clipPath id="clip0_6_9">
<rect width="139.969" height="121.438" fill="white" transform="translate(0 10.2812)"/>
</clipPath>
</defs>
</svg>
