<svg width="150" height="142" viewBox="0 0 150 142" fill="none" xmlns="http://www.w3.org/2000/svg">
<g clip-path="url(#clip0_6_16)">
<path d="M135.609 36.0105L114.913 24.0624L95.7064 35.1507V12.9642L75.0001 1.01609L54.3037 12.9642V35.1407L35.097 24.0524L14.3906 36.0105V59.9168L33.5973 71.005L14.3906 82.0932V105.999L35.087 117.948L54.2937 106.859V129.036L74.9901 140.984L95.6864 129.036V106.859L114.893 117.948L135.609 105.999V82.0932L116.403 71.005L135.609 59.9168V36.0105ZM114.913 25.7822L133.38 36.4405L95.8264 58.187L95.7064 36.8704L114.913 25.7822ZM94.2167 37.7303L94.3366 59.0569L75.7499 69.8252V25.3522L94.2167 14.6939V37.7303ZM55.7934 14.6939L74.2502 25.3522V69.8252L55.7934 59.1369V14.6939ZM35.087 25.7822L54.2937 36.8704V58.257L16.6303 36.4405L35.087 25.7822ZM15.8804 59.0569V37.7403L53.5538 59.5568L35.097 70.1451L15.8804 59.0569ZM15.8804 105.14V83.823L34.3371 94.4813V115.798L15.8804 105.14ZM16.6303 82.5232L35.4669 71.6549L55.0535 60.4167L73.5103 71.105L35.097 93.1815L16.6303 82.5232ZM74.2502 138.834L55.7934 128.176V105.999L74.2502 95.3411V138.834ZM55.7934 104.28L54.6736 104.93L35.8369 115.808V94.4913L74.2502 72.4148V93.6214L55.7934 104.28ZM75.0001 24.0624L56.5433 13.4041L75.0001 2.74582L93.4568 13.4041L75.0001 24.0624ZM94.2067 128.176L75.7499 138.834V95.3411L94.2067 105.999V128.176ZM114.163 115.798L95.3265 104.92L94.2067 104.27L75.7499 93.6114V72.4048L114.163 94.4813V115.798ZM134.12 105.14L115.663 115.798V94.3013L134.12 83.813V105.14ZM133.36 82.5232L114.753 93.1015L76.4898 71.115L95.0765 60.3467L113.423 71.005L114.043 71.3649L114.413 71.5849L114.533 71.6549L133.36 82.5232ZM134.12 59.0569L114.913 70.1451L96.5762 59.4868L134.13 37.7403V59.0569H134.12Z" fill="white"/>
</g>
<defs>
<clipPath id="clip0_6_16">
<rect width="121.219" height="139.969" fill="white" transform="translate(14.3906 1.01562)"/>
</clipPath>
</defs>
</svg>
