<svg width="150" height="142" viewBox="0 0 150 142" fill="none" xmlns="http://www.w3.org/2000/svg">
<g clip-path="url(#clip0_6_24)">
<path d="M119.53 8.06894L93.3561 23.0656L93.406 62.107L56.9741 22.5557L30.27 8.07894L5.01562 22.3558V103.548L30.54 117.795L56.7341 103.298V96.6393L92.3063 133.931L144.985 103.518V22.3558L119.53 8.06894ZM95.8055 25.865L120.47 40.0119V91.4805L95.8455 64.7564L95.8055 25.865ZM7.46509 25.1652L29.8201 38.0723L91.4365 104.278L91.4565 129.472L29.4002 64.4065V114.345L7.46509 102.118V25.1652ZM54.2847 94.2898V101.868L31.7297 114.345V70.4651L54.4247 94.2898H54.2847ZM142.655 102.128L93.8859 130.272L93.866 103.328L31.3498 36.1627L8.69479 23.0856L30.31 10.8583L55.4844 24.5053L122.919 97.6991V38.6022L97.0352 23.7655L119.6 10.8483L142.655 23.7655V102.128Z" fill="white"/>
</g>
<defs>
<clipPath id="clip0_6_24">
<rect width="139.969" height="125.875" fill="white" transform="translate(5.01562 8.0625)"/>
</clipPath>
</defs>
</svg>
