<svg width="150" height="142" viewBox="0 0 150 142" fill="none" xmlns="http://www.w3.org/2000/svg">
<g clip-path="url(#clip0_6_31)">
<path fill-rule="evenodd" clip-rule="evenodd" d="M143.272 49.8211C138.676 35.3036 129.474 22.6795 117.06 13.8611C104.646 5.04265 89.6956 0.510423 74.4744 0.950961C59.2533 1.3915 44.5902 6.78079 32.7068 16.3024C20.8233 25.8241 12.3669 38.9593 8.61838 53.7183C4.86988 68.4773 6.0336 84.0558 11.9333 98.0941C17.833 112.132 28.1472 123.865 41.3134 131.516C54.4796 139.166 69.7805 142.317 84.8982 140.491C100.016 138.666 114.127 131.962 125.093 121.397H125.123L125.693 120.828C128.443 118.065 129.986 114.323 129.982 110.425C129.977 106.526 128.426 102.789 125.67 100.032C122.913 97.2751 119.175 95.7244 115.277 95.7201C111.378 95.7157 107.637 97.258 104.874 100.009V99.9985C99.2387 105.514 92.1178 109.267 84.3828 110.798C76.6477 112.329 68.6342 111.572 61.3228 108.619C54.0113 105.667 47.7192 100.647 43.2165 94.1734C38.7138 87.7004 36.1958 80.055 35.9708 72.1731C35.7457 64.2912 37.8233 56.5147 41.9493 49.7952C46.0754 43.0758 52.0708 37.7049 59.2019 34.3399C66.333 30.9749 74.2902 29.7618 82.1 30.8491C89.9098 31.9363 97.2334 35.2768 103.174 40.4615L105.144 42.4414C106.065 43.3744 106.579 44.6337 106.575 45.9444C106.57 47.2551 106.048 48.5109 105.121 49.4378C104.194 50.3646 102.938 50.8872 101.627 50.8916C100.317 50.896 99.0574 50.3817 98.1244 49.4611L95.3945 46.7212L95.2946 46.8212C95.2512 46.6993 95.1791 46.5896 95.0845 46.5012C90.4494 42.9912 84.9139 40.8676 79.1204 40.3769C73.327 39.8863 67.5132 41.0487 62.3538 43.7293C57.1944 46.4099 52.901 50.4987 49.9719 55.5211C47.0428 60.5436 45.5981 66.2937 45.8055 72.1042C46.0129 77.9147 47.8639 83.5473 51.1436 88.3481C54.4233 93.149 58.9972 96.9213 64.3346 99.2272C69.6719 101.533 75.5539 102.278 81.2976 101.376C87.0413 100.473 92.4114 97.9604 96.7845 94.1288C97.6078 93.209 98.0596 92.0158 98.0522 90.7813C98.0448 89.5468 97.5787 88.3591 96.7444 87.4492C94.7745 85.3193 91.4047 85.8793 89.7348 87.2492C86.6901 89.7254 83.0103 91.2951 79.1158 91.7792C75.2213 92.2632 71.2692 91.6419 67.711 89.9863C64.1528 88.3307 61.1321 85.7076 58.994 82.4167C56.8559 79.1258 55.6867 75.2998 55.6199 71.3759C55.5531 67.452 56.5915 63.5885 58.6164 60.2267C60.6412 56.8649 63.5709 54.1405 67.0706 52.3648C70.5704 50.5891 74.4991 49.8337 78.4078 50.1849C82.3166 50.5361 86.0477 51.9797 89.1749 54.3508L89.2048 54.3308L90.9747 56.1008C93.7376 58.8513 97.4788 60.3936 101.377 60.3893C105.276 60.3849 109.014 58.8342 111.77 56.0775C114.527 53.3208 116.078 49.5831 116.082 45.6845C116.087 41.7858 114.544 38.0447 111.794 35.2818L111.574 35.0618C111.54 34.9045 111.464 34.7593 111.354 34.6418C104.191 27.7874 95.1642 23.1994 85.405 21.4527C75.6459 19.7061 65.5883 20.8784 56.4926 24.823C47.3968 28.7675 39.6674 35.3086 34.2731 43.6269C28.8788 51.9451 26.0594 61.6703 26.1682 71.5839C26.2769 81.4975 29.309 91.1585 34.8845 99.3564C40.4601 107.554 48.3311 113.924 57.5112 117.668C66.6913 121.412 76.7721 122.364 86.4906 120.403C96.209 118.443 105.133 113.658 112.144 106.648C112.158 106.614 112.175 106.581 112.194 106.548C113.096 105.704 114.282 105.228 115.518 105.214C116.754 105.201 117.95 105.65 118.872 106.473C119.793 107.297 120.373 108.436 120.497 109.665C120.622 110.895 120.281 112.127 119.543 113.118C110.412 122.445 98.4949 128.549 85.5902 130.509C72.6855 132.469 59.4934 130.179 48.0043 123.985C36.5153 117.79 27.3527 108.026 21.8992 96.1673C16.4457 84.3084 14.9971 70.9976 17.772 58.2432C20.5469 45.4888 27.3947 33.983 37.2822 25.4618C47.1697 16.9406 59.5605 11.8663 72.5848 11.0047C85.609 10.1431 98.5602 13.5409 109.484 20.6854C120.408 27.8298 128.712 38.3334 133.143 50.611C133.873 52.6409 135.582 55.6008 139.072 55.3808C139.747 55.38 140.413 55.2229 141.017 54.9217C141.621 54.6206 142.147 54.1835 142.554 53.6449C142.961 53.1063 143.238 52.4807 143.362 51.8173C143.487 51.1539 143.456 50.4706 143.272 49.8211Z" stroke="white" stroke-width="1.9999" stroke-miterlimit="10" stroke-linecap="round" stroke-linejoin="round"/>
</g>
<defs>
<clipPath id="clip0_6_31">
<rect width="138.922" height="142" fill="white" transform="translate(5.53906)"/>
</clipPath>
</defs>
</svg>
