<svg width="150" height="142" viewBox="0 0 150 142" fill="none" xmlns="http://www.w3.org/2000/svg">
<g clip-path="url(#clip0_6_38)">
<path d="M121.594 111.65C121.604 111.64 121.604 111.62 121.614 111.61C121.633 111.579 121.646 111.545 121.653 111.51C121.663 111.48 121.674 111.44 121.684 111.41C121.692 111.377 121.695 111.343 121.694 111.31C121.694 111.29 121.704 111.28 121.704 111.26C121.704 111.24 121.694 111.23 121.694 111.21C121.694 111.19 121.684 111.14 121.684 111.11C121.684 111.08 121.663 111.04 121.653 111.01C121.643 110.975 121.629 110.942 121.614 110.91C121.604 110.9 121.604 110.88 121.594 110.87L110.378 91.4448H132.8C132.921 91.441 133.041 91.4103 133.149 91.3548C133.179 91.3348 133.199 91.3148 133.229 91.2948C133.31 91.244 133.379 91.1757 133.429 91.0948C133.439 91.0749 133.459 91.0649 133.479 91.0449L144.835 71.3799C144.845 71.3699 144.845 71.3499 144.855 71.3399C144.875 71.3093 144.888 71.2754 144.895 71.2399C144.905 71.2099 144.915 71.17 144.925 71.14C144.934 71.1073 144.937 71.0736 144.935 71.04C144.935 71.02 144.945 71.01 144.945 70.99C144.945 70.97 144.935 70.96 144.935 70.94C144.935 70.92 144.925 70.87 144.925 70.84C144.925 70.81 144.905 70.7701 144.895 70.7401C144.885 70.7057 144.871 70.6723 144.855 70.6401C144.845 70.6301 144.845 70.6101 144.835 70.6001L133.479 50.9351C133.462 50.9098 133.442 50.8863 133.419 50.8652C133.388 50.8204 133.351 50.78 133.309 50.7452C133.268 50.7129 133.224 50.6828 133.179 50.6552C133.139 50.6293 133.095 50.6091 133.049 50.5952C132.998 50.5757 132.944 50.5655 132.89 50.5652C132.86 50.5652 132.83 50.5452 132.8 50.5452H110.378L121.594 31.1202C121.604 31.1102 121.604 31.0902 121.614 31.0802C121.633 31.0496 121.646 31.0157 121.653 30.9803C121.663 30.9503 121.674 30.9103 121.684 30.8803C121.692 30.8476 121.695 30.8139 121.694 30.7803C121.694 30.7603 121.704 30.7503 121.704 30.7303C121.704 30.7103 121.694 30.7003 121.694 30.6803C121.694 30.6603 121.684 30.6103 121.684 30.5804C121.684 30.5504 121.663 30.5104 121.653 30.4804C121.643 30.4461 121.629 30.4126 121.614 30.3804C121.604 30.3704 121.604 30.3504 121.594 30.3404L110.248 10.6755C110.23 10.6501 110.21 10.6266 110.188 10.6055C110.157 10.5631 110.124 10.523 110.088 10.4855C110.046 10.4532 110.003 10.4232 109.958 10.3955C109.917 10.3696 109.874 10.3494 109.828 10.3355C109.777 10.316 109.722 10.3058 109.668 10.3056C109.638 10.3056 109.608 10.2856 109.578 10.2856H86.8758C86.8558 10.2856 86.8458 10.2956 86.8258 10.2956C86.8058 10.2956 86.7559 10.3056 86.7259 10.3056L86.6159 10.3355C86.5842 10.3446 86.5538 10.3581 86.5259 10.3755C86.5141 10.3835 86.5001 10.387 86.486 10.3855L86.4559 10.4155C86.4275 10.433 86.4008 10.4531 86.376 10.4755C86.3469 10.4996 86.32 10.5264 86.296 10.5555C86.276 10.5855 86.256 10.6055 86.2361 10.6355C86.2237 10.6469 86.2135 10.6604 86.206 10.6755L74.99 30.1005L63.774 10.6755C63.7566 10.6501 63.7364 10.6266 63.714 10.6055C63.6801 10.563 63.6434 10.523 63.604 10.4855C63.5664 10.4554 63.5263 10.4287 63.4841 10.4055C63.4437 10.3796 63.4 10.3594 63.3541 10.3455C63.3033 10.3251 63.2489 10.3149 63.1941 10.3156C63.1641 10.3156 63.1342 10.2956 63.1042 10.2956H40.4023C40.3823 10.2956 40.3722 10.3056 40.3522 10.3056C40.3322 10.3056 40.2823 10.3156 40.2523 10.3156L40.1423 10.3455C40.1106 10.3546 40.0803 10.3681 40.0523 10.3855C40.0406 10.3935 40.0265 10.397 40.0124 10.3955C40.001 10.4079 39.9874 10.418 39.9724 10.4255C39.9439 10.443 39.9172 10.4631 39.8924 10.4855C39.8633 10.5096 39.8365 10.5364 39.8124 10.5655C39.7924 10.5955 39.7725 10.6155 39.7525 10.6455C39.7401 10.6569 39.7299 10.6704 39.7224 10.6855L28.3765 30.3504C28.362 30.3787 28.3519 30.4091 28.3465 30.4404C28.3253 30.4888 28.3085 30.539 28.2964 30.5904C28.2831 30.6899 28.2831 30.7907 28.2964 30.8903C28.3085 30.9417 28.3253 30.9919 28.3465 31.0402C28.3519 31.0716 28.362 31.1019 28.3765 31.1302L39.5925 50.5552H17.1705C17.1505 50.5552 17.1404 50.5652 17.1204 50.5652C17.1004 50.5652 17.0505 50.5752 17.0205 50.5752L16.9105 50.6052C16.8788 50.6143 16.8485 50.6277 16.8205 50.6452C16.8105 50.6552 16.7906 50.6552 16.7806 50.6652L16.7506 50.6952C16.7221 50.7127 16.6954 50.7328 16.6706 50.7552C16.6415 50.7793 16.6147 50.806 16.5906 50.8352C16.5706 50.8652 16.5507 50.8852 16.5307 50.9151C16.5183 50.9265 16.5081 50.9401 16.5007 50.9551L5.14468 70.6201C5.13024 70.6484 5.1201 70.6787 5.11466 70.7101C5.09353 70.7585 5.07675 70.8086 5.06463 70.86C5.05129 70.9596 5.05129 71.0604 5.06463 71.16C5.07675 71.2113 5.09353 71.2615 5.11466 71.3099C5.1201 71.3412 5.13024 71.3716 5.14468 71.3999L16.5007 91.0649L16.5307 91.0948C16.5509 91.1272 16.5742 91.1573 16.6006 91.1848C16.6406 91.2248 16.6806 91.2548 16.7206 91.2948C16.7505 91.3148 16.7606 91.3448 16.7906 91.3548C16.8023 91.3627 16.8164 91.3663 16.8305 91.3648C16.939 91.4203 17.0585 91.451 17.1804 91.4548H39.6025L28.3965 110.88C28.382 110.908 28.3719 110.938 28.3665 110.97C28.3453 111.018 28.3286 111.068 28.3164 111.12C28.3031 111.219 28.3031 111.32 28.3164 111.42C28.3286 111.471 28.3453 111.521 28.3665 111.57C28.3719 111.601 28.382 111.631 28.3965 111.66L39.7425 131.325L39.7725 131.355C39.7926 131.387 39.816 131.417 39.8424 131.445C39.8824 131.484 39.9224 131.514 39.9623 131.554C39.9923 131.574 40.0024 131.604 40.0324 131.614C40.0441 131.622 40.0582 131.626 40.0723 131.624C40.1808 131.68 40.3003 131.711 40.4221 131.714H63.1242C63.2461 131.711 63.3655 131.68 63.4741 131.624C63.5041 131.604 63.524 131.584 63.554 131.564C63.6348 131.514 63.7032 131.445 63.754 131.365C63.764 131.345 63.7839 131.335 63.8039 131.315L75.02 111.89L86.2361 131.315L86.2661 131.345C86.2862 131.377 86.3096 131.407 86.336 131.435C86.376 131.474 86.416 131.504 86.4559 131.544C86.4859 131.564 86.4959 131.594 86.5259 131.604C86.5376 131.612 86.5518 131.616 86.5659 131.614C86.6744 131.67 86.7939 131.701 86.9157 131.704H109.618C109.74 131.701 109.859 131.67 109.968 131.614C109.998 131.594 110.018 131.574 110.048 131.554C110.128 131.504 110.197 131.435 110.248 131.355C110.258 131.335 110.278 131.325 110.298 131.305L121.594 111.65ZM109.108 130.135H88.2153L98.6616 112.039H119.554L109.108 130.135ZM62.6244 130.135H41.7317L64.0738 91.4448H84.9665L62.6244 130.135ZM18.4899 89.8652L28.9362 71.7698H73.6105L63.1641 89.8652H18.4899ZM17.1304 52.8946L27.5767 70.99L17.1304 89.0854L6.68406 70.99L17.1304 52.8946ZM29.9259 30.7203L40.3722 12.625L62.7143 51.315L52.2681 69.4104L29.9259 30.7203ZM86.8658 12.635L97.3121 30.7303L74.98 69.4204L64.5336 51.325L86.8658 12.635ZM109.108 11.8452L119.554 29.9405H98.6616L88.2153 11.8452H109.108ZM132.36 52.1148L142.806 70.2102H98.1319L87.6855 52.1148H132.36ZM86.316 52.8946L96.3024 70.2002H76.3195L86.316 52.8946ZM73.6105 70.2002H53.6276L63.614 52.8946L73.6105 70.2002ZM74.97 72.5596L84.9565 89.8652H64.9735L74.97 72.5596ZM76.3295 71.7798H97.2122L119.544 110.47H98.6516L76.3295 71.7798ZM99.0315 71.7798H142.796L132.35 89.8752H109.468L99.0315 71.7798ZM87.6855 50.5352L98.6716 31.5101H119.564L108.578 50.5352H87.6855ZM63.614 49.7554L41.7317 11.8452H62.6244L74.0703 31.6601L63.614 49.7554ZM50.8986 70.2002H28.9262L18.4799 52.1048H40.4522L50.8986 70.2002ZM62.2545 91.4448L40.3722 129.355L29.9259 111.26L41.3619 91.4448H62.2545ZM86.316 92.2246L97.3021 111.25L86.8558 129.345L75.8697 110.31L86.316 92.2246Z" fill="white"/>
</g>
<defs>
<clipPath id="clip0_6_38">
<rect width="139.891" height="121.438" fill="white" transform="translate(5.05469 10.2812)"/>
</clipPath>
</defs>
</svg>
